<svg xmlns="http://www.w3.org/2000/svg" viewBox="0 0 328.8 109.9"><style type="text/css">  
	.st0{fill:#FFFFFF;}
</style><path class="st0" d="M24.4 0.5V4c-1-0.1-2.1-0.4-3-0.4 -5.5 0-8.5 2.1-8.5 14.1V36h11.5v3.7H12.9v41.6H8.8V39.8H0V36h8.8V17.6C8.8 5.1 12.8 0 20.9 0 22.1 0 23.4 0.3 24.4 0.5z"/><path class="st0" d="M52.1 107.3H48l10.3-26.5L40.9 36h4.3l15.3 40 15.3-40h4.1L52.1 107.3z"/><path class="st0" d="M135.5 81.4V55.1c0-12.8-4.5-16.6-12.3-16.6s-16.4 8.1-16.4 17.3v25.7h-4.1V36h3.8l0.2 10.5c2.9-7 10.4-12.1 17.4-12.1 10 0 15.5 6 15.5 20.3v26.6H135.5z"/><path class="st0" d="M186.4 34.4c7.6 0 14.4 3.9 18 11.4l0.2-9.8h3.8v45.4h-3.8l-0.2-9.8c-3.6 7.6-10.4 11.4-18 11.4 -11.8 0-21-10-21-24.3C165.4 44.2 174.6 34.4 186.4 34.4zM187 79.1c9.5 0 17.5-7.4 17.5-20.5s-8-20.3-17.5-20.3c-9.6 0-17.5 7.4-17.5 20.3S177.4 79.1 187 79.1z"/><path class="st0" d="M269.7 81.4V55.1c0-12.8-4.5-16.6-12.3-16.6S241 46.5 241 55.7v25.7h-4.1V36h3.8l0.2 10.5c2.9-7 10.4-12.1 17.4-12.1 10 0 15.5 6 15.5 20.3v26.6H269.7z"/><path class="st0" d="M313.4 83c-6.6 0-12.3-2.9-14.3-4.1l0.8-3.9c3.1 2 8.3 4.1 13.6 4.1 6.6 0 11.1-2.8 11.1-9.4 0-5.2-3.5-7.4-11.9-10 -8.3-2.4-12.4-6.8-12.4-13 0-6.9 5-12.2 14.1-12.2 5 0 9.9 2.3 11.6 3.2l-0.8 3.7c-3-1.7-7.3-3.1-10.9-3.1 -7.3 0-10 3.5-10 8.1 0 5.3 3.4 7.4 10 9.6 8.9 2.5 14.3 6.6 14.3 13.2C328.8 78.3 322.2 83 313.4 83z"/><path class="st0" d="M101.9 95.2v-3.4h3.6v3.4H101.9zM101.9 109.4V98.5h3.6v10.9H101.9z"/><path class="st0" d="M123.3 109.4v-6c0-1.8-0.6-2.5-1.9-2.5 -1.3 0-2.6 1.2-2.6 2.7v5.8h-3.6V98.5h3.3l0.2 1.9c0.7-1.4 2.6-2.3 4.1-2.3 2.9 0 4.1 2 4.1 4.8v6.6H123.3z"/><path class="st0" d="M141.1 100.8v8.6h-3.6v-8.6h-2.1v-2.3h2.1v-3.7h3.6v3.7h2.1v2.3H141.1z"/><path class="st0" d="M161.9 104.1h-7.1c0 1.6 0.8 3.2 3.6 3.2 1.2 0 2.7-0.6 3.5-1.3v2.4c-1 0.8-2.7 1.4-4.6 1.4 -3.6 0-6-2.5-6-6 0-3.5 2.7-5.8 5.7-5.8 2.8 0 5.1 1.9 5.1 4.5C162.1 103.1 162 103.7 161.9 104.1zM157 100.2c-1 0-1.8 0.6-2.1 2.1h3.9c0 0 0-0.2 0-0.4C158.8 100.9 158.2 100.2 157 100.2z"/><path class="st0" d="M174.9 103.8v5.6h-3.6V98.5h3.3l0.2 2c0.7-1.3 2.1-2.4 4-2.4v3.5C176.8 100.9 174.9 101.9 174.9 103.8z"/><path class="st0" d="M195.3 109.4v-6c0-1.8-0.6-2.5-1.9-2.5 -1.3 0-2.6 1.2-2.6 2.7v5.8h-3.6V98.5h3.3l0.2 1.9c0.7-1.4 2.6-2.3 4.1-2.3 2.9 0 4.1 2 4.1 4.8v6.6H195.3z"/><path class="st0" d="M213 98.1c1.4 0 3 0.5 3.9 1.9l0.1-1.4h3.3v10.9H217l-0.1-1.4c-0.9 1.3-2.6 1.9-3.9 1.9 -2.9 0-5.2-2.4-5.2-5.9C207.8 100.5 210.1 98.1 213 98.1zM214.1 107.2c1.4 0 2.8-1.1 2.8-3.3s-1.4-3.2-2.8-3.2c-1.4 0-2.8 1.1-2.8 3.2C211.4 106.1 212.7 107.2 214.1 107.2z"/><path class="st0" d="M234.7 100.8v8.6h-3.6v-8.6H229v-2.3h2.1v-3.7h3.6v3.7h2.1v2.3H234.7z"/><path class="st0" d="M245.4 95.2v-3.4h3.6v3.4H245.4zM245.4 109.4V98.5h3.6v10.9H245.4z"/><path class="st0" d="M264.3 109.9c-3.6 0-6.4-2.6-6.4-6s2.8-5.9 6.4-5.9c3.6 0 6.4 2.5 6.4 5.9S267.8 109.9 264.3 109.9zM264.3 100.7c-1.7 0-2.8 1.3-2.8 3.3 0 2 1.2 3.3 2.8 3.3 1.7 0 2.8-1.3 2.8-3.3C267.1 101.9 266 100.7 264.3 100.7z"/><path class="st0" d="M287.7 109.4v-6c0-1.8-0.6-2.5-1.9-2.5 -1.3 0-2.6 1.2-2.6 2.7v5.8h-3.6V98.5h3.3l0.2 1.9c0.7-1.4 2.6-2.3 4.1-2.3 2.9 0 4.1 2 4.1 4.8v6.6H287.7z"/><path class="st0" d="M305.4 98.1c1.4 0 3 0.5 3.9 1.9l0.1-1.4h3.3v10.9h-3.3l-0.1-1.4c-0.9 1.3-2.6 1.9-3.9 1.9 -2.9 0-5.2-2.4-5.2-5.9C300.2 100.5 302.5 98.1 305.4 98.1zM306.5 107.2c1.4 0 2.8-1.1 2.8-3.3s-1.4-3.2-2.8-3.2c-1.4 0-2.8 1.1-2.8 3.2C303.8 106.1 305.1 107.2 306.5 107.2z"/><path class="st0" d="M322.3 109.4V90.2h3.6v19.2H322.3z"/></svg>
