<svg height="24" viewBox="0 0 24 24" width="24" xmlns="http://www.w3.org/2000/svg" xmlns:xlink="http://www.w3.org/1999/xlink">
  <defs>
    <path d="M0 0h24v24H0V0z" id="a"/>
  </defs>
  <clipPath id="b">
    <use overflow="visible" xlink:href="#a"/>
  </clipPath>
  <path clip-path="url(#b)" fill='#484848' d="M12 17c1 0 2-1 2-2s-1-2-2-2-2 1-2 2 1 2 2 2zm6-9h-1V6c0-2.8-2.2-5-5-5S7 3.2 7 6v2H6c-1 0-2 1-2 2v10c0 1 1 2 2 2h12c1 0 2-1 2-2V10c0-1-1-2-2-2zM9 6c0-1.7 1.3-3 3-3s3 1.3 3 3v2H9V6zm9 14H6V10h12v10z"/>
</svg>
