<?xml version="1.0" encoding="utf-8"?>
<!-- Generator: Adobe Illustrator 19.2.1, SVG Export Plug-In . SVG Version: 6.00 Build 0)  -->
<svg version="1.1" id="Layer_1" xmlns="http://www.w3.org/2000/svg" xmlns:xlink="http://www.w3.org/1999/xlink" x="0px" y="0px"
	 viewBox="0 0 52.2 71.7" style="enable-background:new 0 0 52.2 71.7;" xml:space="preserve">
<style type="text/css">
	.st0{fill:#FFFFFF;}
</style>
<g>
	<path class="st0" d="M6.4,71.7L6.4,71.7c-3.5,0-6.4-2.9-6.4-6.4l0-30.9C0,30.9,2.9,28,6.4,28h0c3.5,0,6.4,2.9,6.4,6.4v30.9
		C12.8,68.8,9.9,71.7,6.4,71.7z"/>
	<path class="st0" d="M26.1,71.7L26.1,71.7c-3.5,0-6.4-2.9-6.4-6.4V6.4c0-3.5,2.9-6.4,6.4-6.4h0c3.5,0,6.4,2.9,6.4,6.4v58.9
		C32.5,68.8,29.6,71.7,26.1,71.7z"/>
	<path class="st0" d="M45.8,71.7L45.8,71.7c-3.5,0-6.4-2.9-6.4-6.4V19.9c0-3.5,2.9-6.4,6.4-6.4h0c3.5,0,6.4,2.9,6.4,6.4v45.4
		C52.2,68.8,49.3,71.7,45.8,71.7z"/>
</g>
</svg>
